{"title":"The War of the Worlds (1953) CLASSIC ","uid":5854873,"size":734650884,"categoryP":"video","categoryS":"movies","magnet":"?xt=urn:btih:955a42a101341ac9170995e4396255502e0a9714&amp;dn=The+War+of+the+Worlds+%281953%29+CLASSIC+&amp;tr=udp%3A%2F%2Ftracker.openbittorrent.com%3A80&amp;tr=udp%3A%2F%2Fopen.demonii.com%3A1337&amp;tr=udp%3A%2F%2Ftracker.coppersurfer.tk%3A6969&amp;tr=udp%3A%2F%2Fexodus.desync.com%3A6969","seeders":7,"leechers":0,"uploader":".BONE.","files":8,"time":1285564367,"description":"\nPlot: The film adaptation of the H.G.Wells story told on radio of the invasion of Earth by Martians.\n\nVideo\nID : 0\nFormat : MPEG-4 Visual\nFormat profile : Advanced Simple@L5\nFormat settings, BVOP : Yes\nFormat settings, QPel : No\nFormat settings, GMC : No warppoints\nFormat settings, Matrix : Custom\nCodec ID : XVID\nCodec ID/Hint : XviD\nDuration : 1h 21mn\nBit rate : 1 068 Kbps\nWidth : 592 pixels\nHeight : 448 pixels\nDisplay aspect ratio : 4:3\nFrame rate : 25.000 fps\nColor space : YUV\nChroma subsampling : 4:2:0\nBit depth : 8 bits\nScan type : Progressive\nBits/(Pixel*Frame) : 0.161\nStream size : 626 MiB (89%)\nWriting library : XviD 1.2.1 (UTC 2008-12-04)\n\nAudio\nID : 1\nFormat : MPEG Audio\nFormat version : Version 1\nFormat profile : Layer 3\nMode : Joint stereo\nMode extension : MS Stereo\nCodec ID : 55\nCodec ID/Hint : MP3\nDuration : 1h 21mn\nBit rate mode : Variable\nBit rate : 113 Kbps\nNominal bit rate : 128 Kbps\nChannel(s) : 2 channels\nSampling rate : 48.0 KHz\nStream size : 66.0 MiB (9%)\nAlignment : Aligned on interleaves\nInterleave, duration : 24 ms (0.60 video frame)\nInterleave, preload duration : 163 ms\nWriting library : LAME3.98r\nEncoding settings : -m j -V 4 -q 2 -lowpass 17 --abr 128\nLanguage : English\n &lt;a href=&quot;\nhttp://www.imdb.com/title/tt0046534/&quot; rel=&quot;nofollow&quot; target=&quot;_NEW&quot;&gt;\nhttp://www.imdb.com/title/tt0046534/&lt;/a&gt;","torrent":{"xt":"urn:btih:955a42a101341ac9170995e4396255502e0a9714","amp;dn":"The+War+of+the+Worlds+%281953%29+CLASSIC+","amp;tr":["udp%3A%2F%2Ftracker.openbittorrent.com%3A80","udp%3A%2F%2Fopen.demonii.com%3A1337","udp%3A%2F%2Ftracker.coppersurfer.tk%3A6969","udp%3A%2F%2Fexodus.desync.com%3A6969"],"infoHash":"955a42a101341ac9170995e4396255502e0a9714","infoHashBuffer":{"type":"Buffer","data":[149,90,66,161,1,52,26,201,23,9,149,228,57,98,85,80,46,10,151,20]},"announce":[],"urlList":[]}}